<?xml version="1.0" standalone="no"?>
<!DOCTYPE svg PUBLIC "-//W3C//DTD SVG 20010904//EN"
 "http://www.w3.org/TR/2001/REC-SVG-20010904/DTD/svg10.dtd">
<svg version="1.0" xmlns="http://www.w3.org/2000/svg"
 width="837.000000pt" height="837.000000pt" viewBox="0 0 837.000000 837.000000"
 preserveAspectRatio="xMidYMid meet">
<metadata>
Created by potrace 1.14, written by Peter Selinger 2001-2017
</metadata>
<g transform="translate(0.000000,837.000000) scale(0.100000,-0.100000)"
fill="#000000" stroke="none">
<path d="M3877 8361 c-91 -8 -113 -16 -81 -27 135 -49 365 -168 534 -276 1218
-779 2034 -2397 2334 -4628 23 -169 76 -640 76 -673 0 -11 26 -15 113 -20 116
-6 190 -21 289 -61 291 -118 492 -392 526 -717 l8 -74 46 70 c333 510 552
1141 630 1820 17 145 17 675 0 820 -83 724 -306 1344 -687 1915 -684 1023
-1765 1684 -3005 1835 -151 19 -639 28 -783 16z"/>
<path d="M2560 7773 c-193 -14 -498 -67 -668 -116 -70 -21 -96 -35 -216 -126
-75 -57 -138 -107 -141 -111 -6 -9 1 -10 240 -35 867 -90 1737 -445 2500
-1021 787 -593 1489 -1445 2074 -2519 39 -71 71 -124 71 -116 0 38 -127 471
-209 711 -289 847 -651 1537 -1110 2114 -132 166 -460 494 -611 610 -243 189
-546 361 -794 451 -349 128 -763 185 -1136 158z"/>
<path d="M1445 6555 c-247 -24 -694 -96 -772 -126 -13 -5 -48 -52 -87 -118
-74 -124 -190 -351 -183 -357 3 -3 142 0 309 6 801 30 1650 -56 2362 -240 469
-120 862 -267 1266 -470 779 -393 1402 -938 1865 -1631 41 -62 75 -107 75 -99
0 21 -189 383 -275 525 -340 568 -753 1062 -1210 1450 -704 598 -1483 941
-2385 1051 -188 23 -760 28 -965 9z"/>
<path d="M1655 5329 c-426 -15 -816 -62 -1323 -161 -185 -36 -215 -44 -223
-62 -13 -31 -56 -277 -75 -424 -34 -281 -34 -711 1 -988 119 -930 509 -1747
1153 -2416 631 -654 1469 -1086 2372 -1223 308 -47 714 -59 1021 -29 840 79
1637 410 2281 946 l63 53 -135 6 c-161 8 -223 23 -355 88 -178 88 -299 209
-385 386 -61 125 -79 192 -87 327 -12 219 44 402 179 582 83 111 230 220 361
268 31 11 57 26 57 32 0 19 -115 220 -203 354 -368 562 -866 1059 -1428 1425
-919 599 -2020 880 -3274 836z"/>
</g>
</svg>
